<svg width="40" height="40" viewBox="0 0 40 40" fill="none" xmlns="http://www.w3.org/2000/svg">
<circle cx="20" cy="20" r="20" fill="#25ACE3"/>
<path d="M20.4004 16.0273C17.9841 16.0273 16.0254 17.9861 16.0254 20.4023C16.0254 22.8186 17.9841 24.7773 20.4004 24.7773C22.8167 24.7773 24.7754 22.8186 24.7754 20.4023C24.7754 17.9861 22.8167 16.0273 20.4004 16.0273Z" fill="white"/>
<path fill-rule="evenodd" clip-rule="evenodd" d="M20.4006 7.85938C20.8838 7.85938 21.2756 8.25113 21.2756 8.73438V10.2297C26.2155 10.649 30.1526 14.5862 30.5719 19.526H32.0672C32.5505 19.526 32.9422 19.9178 32.9422 20.401C32.9422 20.8843 32.5505 21.276 32.0672 21.276H30.5719C30.1526 26.2159 26.2155 30.1531 21.2756 30.5724V32.0677C21.2756 32.5509 20.8838 32.9427 20.4006 32.9427C19.9173 32.9427 19.5256 32.5509 19.5256 32.0677V30.5724C14.5857 30.1531 10.6485 26.2159 10.2292 21.276H8.73389C8.25064 21.276 7.85889 20.8843 7.85889 20.401C7.85889 19.9178 8.25064 19.526 8.73389 19.526H10.2292C10.6485 14.5862 14.5857 10.649 19.5256 10.2297V8.73438C19.5256 8.25113 19.9173 7.85938 20.4006 7.85938ZM11.9422 20.401C11.9422 25.0725 15.7292 28.8594 20.4006 28.8594C25.072 28.8594 28.8589 25.0725 28.8589 20.401C28.8589 15.7296 25.072 11.9427 20.4006 11.9427C15.7292 11.9427 11.9422 15.7296 11.9422 20.401Z" fill="white"/>
</svg>
