<svg width="22" height="36" viewBox="0 0 22 36" fill="none" xmlns="http://www.w3.org/2000/svg">
<path fill-rule="evenodd" clip-rule="evenodd" d="M16.887 4.28321C12.9974 3.46809 9.00407 3.46809 5.11445 4.28321C4.38245 4.4366 3.80107 5.1396 3.65515 6.04511C2.32754 14.2838 2.25509 22.7617 3.44164 31.034L3.68696 32.7443L9.19277 26.2062C10.2059 25.003 11.7956 25.003 12.8087 26.2062L18.3144 32.7443L18.5598 31.034C19.7463 22.7617 19.6739 14.2838 18.3462 6.04511C18.2004 5.1396 17.619 4.4366 16.887 4.28321ZM4.74244 1.50943C8.87837 0.642691 13.1231 0.642691 17.259 1.50943C18.9078 1.85495 20.2212 3.4371 20.552 5.48973C21.9354 14.0752 22.011 22.9098 20.7744 31.5303L20.4423 33.8465C20.1635 35.7906 18.2673 36.5676 17.1218 35.2073L11.259 28.2453C11.1143 28.0733 10.8872 28.0733 10.7424 28.2453L4.87964 35.2073C3.73409 36.5676 1.83803 35.7906 1.55918 33.8465L1.22695 31.5303C-0.00951877 22.9098 0.0659615 14.0752 1.44946 5.48973C1.78022 3.4371 3.09362 1.85495 4.74244 1.50943Z" fill="#25ACE3"/>
</svg>
