<svg width="14" height="21" viewBox="0 0 14 21" fill="none" xmlns="http://www.w3.org/2000/svg">
<path d="M11.1311 1.31849C8.40105 0.841753 5.59925 0.841753 2.8693 1.31849C1.87197 1.49266 1.0777 2.29023 0.877725 3.32437C-0.0383947 8.06196 -0.088385 12.937 0.730385 17.694L1.06374 19.6306C1.16653 20.2278 1.86543 20.4665 2.28769 20.0487L6.31145 16.0669C6.69735 15.6849 7.30295 15.6849 7.68895 16.0669L11.7127 20.0487C12.1349 20.4665 12.8338 20.2278 12.9366 19.6306L13.27 17.694C14.0887 12.9371 14.0388 8.06196 13.1226 3.32437C12.9227 2.29023 12.1284 1.49266 11.1311 1.31849Z" fill="#25ACE3"/>
</svg>
