<svg width="20" height="20" viewBox="0 0 20 20" fill="none" xmlns="http://www.w3.org/2000/svg">
<path d="M10.0001 19.2863C15.1284 19.2863 19.2858 15.1289 19.2858 10.0006C19.2858 4.8722 15.1284 0.714844 10.0001 0.714844C4.87171 0.714844 0.714355 4.8722 0.714355 10.0006C0.714355 15.1289 4.87171 19.2863 10.0001 19.2863Z" stroke="#00A2E8" stroke-linecap="round" stroke-linejoin="round"/>
<path d="M10 0.714844V3.3977" stroke="#00A2E8" stroke-linecap="round" stroke-linejoin="round"/>
<path d="M3.43457 3.43359L5.04743 5.04645" stroke="#00A2E8" stroke-linecap="round" stroke-linejoin="round"/>
<path d="M0.714355 10H3.39721" stroke="#00A2E8" stroke-linecap="round" stroke-linejoin="round"/>
<path d="M10 19.2844V16.6016" stroke="#00A2E8" stroke-linecap="round" stroke-linejoin="round"/>
<path d="M16.5655 16.566L14.9526 14.9531" stroke="#00A2E8" stroke-linecap="round" stroke-linejoin="round"/>
<path d="M19.2859 10H16.603" stroke="#00A2E8" stroke-linecap="round" stroke-linejoin="round"/>
<path d="M14.1273 5.87109L8.12876 8.12681L5.87305 14.1254L11.8716 11.8697L14.1273 5.87109Z" stroke="#00A2E8" stroke-linecap="round" stroke-linejoin="round"/>
<path d="M8.12891 8.12891L11.8718 11.8718" stroke="#00A2E8" stroke-linecap="round" stroke-linejoin="round"/>
</svg>
