<svg width="37" height="26" viewBox="0 0 37 26" fill="none" xmlns="http://www.w3.org/2000/svg">
<path fill-rule="evenodd" clip-rule="evenodd" d="M22.061 1.05748C17.5766 0.586307 13.0573 0.551272 8.56631 0.952809L5.5675 1.22094C3.08938 1.44252 1.0871 3.3357 0.727193 5.79754C0.0141129 10.6749 0.0141129 15.6303 0.727193 20.5077C1.0871 22.9696 3.08938 24.8628 5.5675 25.0842L8.56631 25.3525C13.0573 25.754 17.5766 25.719 22.061 25.2478L23.2131 25.1267C25.5717 24.8789 27.4801 23.1232 27.9394 20.8186L33.7158 23.8874C34.1371 24.1113 34.6423 24.1088 35.0615 23.8813C35.4807 23.6536 35.7576 23.2311 35.7994 22.756L35.8466 22.2179C36.3753 16.1859 36.3753 10.1193 35.8466 4.08738L35.7994 3.54927C35.7576 3.07413 35.4807 2.65153 35.0615 2.42392C34.6423 2.19631 34.1371 2.19401 33.7158 2.41778L27.9394 5.48668C27.4801 3.18203 25.5717 1.42635 23.2131 1.17853L22.061 1.05748ZM8.81956 3.78526C13.1274 3.4001 17.4625 3.43372 21.7637 3.88564L22.9158 4.00671C24.0753 4.12854 25.0047 5.02098 25.1734 6.17458C25.8498 10.802 25.8498 15.5033 25.1734 20.1306C25.0047 21.2842 24.0753 22.1768 22.9158 22.2985L21.7637 22.4196C17.4625 22.8714 13.1274 22.9052 8.81956 22.5199L5.82077 22.2519C4.6536 22.1474 3.71053 21.2558 3.54103 20.0963C2.86783 15.4917 2.86783 10.8135 3.54103 6.20893C3.71053 5.04942 4.6536 4.15775 5.82077 4.05339L8.81956 3.78526ZM28.3129 8.50845C28.595 11.598 28.595 14.7072 28.3129 17.7968L33.1416 20.3623C33.4853 15.562 33.4853 10.7432 33.1416 5.94302L28.3129 8.50845Z" fill="#25ACE3"/>
</svg>
