<svg width="40" height="40" viewBox="0 0 40 40" fill="none" xmlns="http://www.w3.org/2000/svg">
<circle cx="20" cy="20" r="20" fill="#25ACE3"/>
<path fill-rule="evenodd" clip-rule="evenodd" d="M22.8072 12.9536C20.0476 12.6637 17.2665 12.6421 14.5028 12.8892L12.6574 13.0542C11.1324 13.1906 9.9002 14.3556 9.67872 15.8706C9.2399 18.8721 9.2399 21.9215 9.67872 24.923C9.9002 26.438 11.1324 27.6031 12.6574 27.7393L14.5028 27.9044C17.2665 28.1515 20.0476 28.1299 22.8072 27.84L23.5162 27.7655C24.9677 27.613 26.142 26.5325 26.4247 25.1143L29.9794 27.0028C30.2387 27.1406 30.5496 27.1391 30.8075 26.9991C31.0655 26.859 31.2359 26.5989 31.2616 26.3066L31.2906 25.9754C31.616 22.2635 31.616 18.5301 31.2906 14.8182L31.2616 14.487C31.2359 14.1947 31.0655 13.9346 30.8075 13.7945C30.5496 13.6545 30.2387 13.653 29.9794 13.7907L26.4247 15.6793C26.142 14.2611 24.9677 13.1806 23.5162 13.0281L22.8072 12.9536ZM14.6586 14.6323C17.3096 14.3953 19.9774 14.4159 22.6243 14.6941L23.3333 14.7686C24.0468 14.8435 24.6187 15.3927 24.7225 16.1026C25.1388 18.9502 25.1388 21.8433 24.7225 24.6909C24.6187 25.4009 24.0468 25.9501 23.3333 26.025L22.6243 26.0996C19.9774 26.3776 17.3096 26.3984 14.6586 26.1613L12.8132 25.9963C12.095 25.932 11.5146 25.3834 11.4103 24.6698C10.996 21.8362 10.996 18.9574 11.4103 16.1238C11.5146 15.4102 12.095 14.8615 12.8132 14.7973L14.6586 14.6323ZM26.6545 17.5389C26.8281 19.4401 26.8281 21.3535 26.6545 23.2548L29.626 24.8335C29.8376 21.8795 29.8376 18.9141 29.626 15.9601L26.6545 17.5389Z" fill="white"/>
</svg>
