<svg width="20" height="20" viewBox="0 0 20 20" fill="none" xmlns="http://www.w3.org/2000/svg">
<path d="M2.85721 5.00056C4.04068 5.00056 5.00007 4.04117 5.00007 2.8577C5.00007 1.67423 4.04068 0.714844 2.85721 0.714844C1.67375 0.714844 0.714355 1.67423 0.714355 2.8577C0.714355 4.04117 1.67375 5.00056 2.85721 5.00056Z" stroke="#25ACE3" stroke-linecap="round" stroke-linejoin="round"/>
<path d="M18.7551 13.6331C18.5664 15.248 17.9687 16.4959 16.962 17.3767C15.9623 18.2506 14.6305 18.6875 12.9667 18.6875C11.1631 18.6875 9.71595 18.0408 8.62538 16.7475C7.54179 15.4542 7 13.724 7 11.5568V10.0887C7 8.66959 7.25167 7.42172 7.75501 6.34513C8.26535 5.26854 8.98541 4.44361 9.91519 3.87036C10.845 3.29012 11.9216 3 13.145 3C14.7669 3 16.0672 3.45441 17.0459 4.36322C18.0246 5.26504 18.5943 6.5164 18.7551 8.11731" stroke="#25ACE3" stroke-width="1.34225"/>
</svg>
