<svg width="19" height="19" viewBox="0 0 19 19" fill="none" xmlns="http://www.w3.org/2000/svg">
<path fill-rule="evenodd" clip-rule="evenodd" d="M0.645508 9.4987C0.645508 4.60868 4.60965 0.644531 9.49967 0.644531C14.3897 0.644531 18.3538 4.60868 18.3538 9.4987C18.3538 14.3887 14.3897 18.3529 9.49967 18.3529C4.60965 18.3529 0.645508 14.3887 0.645508 9.4987ZM10.2809 4.29036C10.2809 3.8589 9.93113 3.50911 9.49967 3.50911C9.06822 3.50911 8.71842 3.8589 8.71842 4.29036V9.4987C8.71842 9.76807 8.85717 10.0184 9.08561 10.1612L12.2106 12.1143C12.5766 12.343 13.0585 12.2318 13.2872 11.8659C13.5158 11.4999 13.4047 11.018 13.0387 10.7893L10.2809 9.06568V4.29036Z" fill="#25ACE3"/>
</svg>
