<svg width="40" height="40" viewBox="0 0 40 40" fill="none" xmlns="http://www.w3.org/2000/svg">
<circle cx="20" cy="20" r="20" fill="#25ACE3"/>
<path d="M21.2754 14.5664C21.2754 14.0832 20.8836 13.6914 20.4004 13.6914C19.9172 13.6914 19.5254 14.0832 19.5254 14.5664V20.3997C19.5254 20.7014 19.6808 20.9818 19.9366 21.1417L23.4366 23.3292C23.8465 23.5853 24.3863 23.4608 24.6424 23.051C24.8985 22.6411 24.774 22.1013 24.3641 21.8452L21.2754 19.9148V14.5664Z" fill="white"/>
<path fill-rule="evenodd" clip-rule="evenodd" d="M20.4002 10.1914C14.7623 10.1914 10.1919 14.7618 10.1919 20.3997C10.1919 26.0377 14.7623 30.6081 20.4002 30.6081C26.0381 30.6081 30.6086 26.0377 30.6086 20.3997C30.6086 14.7618 26.0381 10.1914 20.4002 10.1914ZM11.9419 20.3997C11.9419 15.7283 15.7288 11.9414 20.4002 11.9414C25.0717 11.9414 28.8586 15.7283 28.8586 20.3997C28.8586 25.0712 25.0717 28.8581 20.4002 28.8581C15.7288 28.8581 11.9419 25.0712 11.9419 20.3997Z" fill="white"/>
</svg>
