<svg width="21" height="21" viewBox="0 0 21 21" fill="none" xmlns="http://www.w3.org/2000/svg">
<path fill-rule="evenodd" clip-rule="evenodd" d="M9.71875 1.94128C5.33868 2.33599 1.90625 6.01716 1.90625 10.5C1.90625 15.2461 5.7538 19.0938 10.5 19.0938C12.9181 19.0938 15.1026 18.0957 16.6651 16.4871L10.009 11.1076C9.82542 10.9593 9.71875 10.7359 9.71875 10.5V1.94128ZM11.2812 1.94128V9.71875H19.0588C18.6872 5.59599 15.4041 2.3128 11.2812 1.94128ZM19.0588 11.2812H12.7096L17.648 15.2724C18.4252 14.1108 18.9266 12.7497 19.0588 11.2812ZM0.34375 10.5C0.34375 4.89085 4.89085 0.34375 10.5 0.34375C16.1092 0.34375 20.6562 4.89085 20.6562 10.5C20.6562 12.9179 19.8103 15.1404 18.399 16.8845C16.5383 19.1839 13.6908 20.6562 10.5 20.6562C4.89085 20.6562 0.34375 16.1092 0.34375 10.5Z" fill="#6E55B5"/>
</svg>
