<svg width="40" height="40" viewBox="0 0 40 40" fill="none" xmlns="http://www.w3.org/2000/svg">
<circle cx="20" cy="20" r="20" fill="#25ACE3"/>
<path fill-rule="evenodd" clip-rule="evenodd" d="M25.9835 10.747C24.9622 9.7256 23.2323 10.0588 22.6633 11.3864L20.8053 15.7217C19.0563 15.3788 17.1721 15.884 15.8153 17.2407L13.8202 19.2359C13.4785 19.5776 13.4785 20.1316 13.8202 20.4732L16.7314 23.3845L10.4482 29.6677C10.1065 30.0094 10.1065 30.5635 10.4482 30.9052C10.7899 31.2468 11.3439 31.2468 11.6856 30.9052L17.9689 24.6219L20.8802 27.5332C21.0442 27.6973 21.2668 27.7895 21.4988 27.7895C21.7309 27.7895 21.9535 27.6973 22.1176 27.5332L24.1126 25.5381C25.4695 24.1814 25.9746 22.2971 25.6316 20.5481L29.9671 18.6901C31.2946 18.1211 31.6278 16.3912 30.6064 15.3699L25.9835 10.747ZM24.2718 12.0757C24.3531 11.8861 24.6002 11.8385 24.7461 11.9844L29.3691 16.6073C29.5149 16.7532 29.4673 17.0004 29.2777 17.0817L24.2431 19.2394C23.8181 19.4215 23.6082 19.903 23.764 20.3385C24.2435 21.6782 23.9456 23.2303 22.8753 24.3007L21.4988 25.677L15.6764 19.8545L17.0528 18.4782C18.1231 17.4079 19.6753 17.1099 21.015 17.5894C21.4504 17.7453 21.9319 17.5354 22.1141 17.1103L24.2718 12.0757Z" fill="white"/>
</svg>
