<svg width="25" height="25" viewBox="0 0 25 25" fill="none" xmlns="http://www.w3.org/2000/svg">
<path d="M16.4062 13.543C16.4062 13.1115 16.0565 12.7617 15.625 12.7617H9.375C8.94353 12.7617 8.59375 13.1115 8.59375 13.543C8.59375 13.9744 8.94353 14.3242 9.375 14.3242H15.625C16.0565 14.3242 16.4062 13.9744 16.4062 13.543Z" fill="#277EBD"/>
<path d="M16.4062 17.707C16.4062 17.2756 16.0565 16.9258 15.625 16.9258H9.375C8.94353 16.9258 8.59375 17.2756 8.59375 17.707C8.59375 18.1385 8.94353 18.4883 9.375 18.4883H15.625C16.0565 18.4883 16.4062 18.1385 16.4062 17.707Z" fill="#277EBD"/>
<path fill-rule="evenodd" clip-rule="evenodd" d="M7.29232 2.34375C5.71026 2.34375 4.42773 3.62627 4.42773 5.20833V19.7917C4.42773 21.3737 5.71026 22.6562 7.29232 22.6562H17.709C19.2911 22.6562 20.5736 21.3737 20.5736 19.7917V8.29965C20.5736 7.90301 20.4442 7.5172 20.2051 7.20073L17.0824 3.06775C16.7378 2.61177 16.1995 2.34375 15.6279 2.34375H7.29232ZM5.99023 5.20833C5.99023 4.48921 6.57319 3.90625 7.29232 3.90625H14.8444V8.48651C14.8444 8.91798 15.1942 9.26776 15.6257 9.26776H19.0111V19.7917C19.0111 20.5108 18.4282 21.0938 17.709 21.0938H7.29232C6.57319 21.0938 5.99023 20.5108 5.99023 19.7917V5.20833Z" fill="#277EBD"/>
</svg>
