<svg width="25" height="25" viewBox="0 0 25 25" fill="none" xmlns="http://www.w3.org/2000/svg">
<path d="M23.3424 17.6592L17.6602 23.3414C17.5358 23.4658 17.3882 23.5646 17.2256 23.6319C17.0631 23.6993 16.8888 23.734 16.7129 23.734C16.5369 23.734 16.3627 23.6993 16.2002 23.6319C16.0376 23.5646 15.8899 23.4658 15.7656 23.3414L4.14235 11.7182C4.07498 11.6506 4.02278 11.5695 3.98922 11.4802C3.95566 11.3909 3.94151 11.2955 3.94771 11.2003L4.362 4.98602C4.37287 4.82384 4.44221 4.67111 4.55715 4.55617C4.67209 4.44124 4.82482 4.3719 4.987 4.36102L11.2013 3.94673C11.2965 3.94053 11.3919 3.95468 11.4812 3.98824C11.5705 4.0218 11.6516 4.07401 11.7191 4.14138L23.3424 15.7646C23.4668 15.889 23.5655 16.0366 23.6329 16.1992C23.7003 16.3617 23.7349 16.536 23.7349 16.7119C23.7349 16.8879 23.7003 17.0621 23.6329 17.2246C23.5655 17.3872 23.4668 17.5349 23.3424 17.6592V17.6592Z" stroke="#25ACE3" stroke-linecap="round" stroke-linejoin="round"/>
<path d="M7.51855 7.51953L1.26855 1.26953" stroke="#25ACE3" stroke-linecap="round" stroke-linejoin="round"/>
</svg>
