<svg width="25" height="25" viewBox="0 0 25 25" fill="none" xmlns="http://www.w3.org/2000/svg">
<circle cx="12.5" cy="12.5" r="12.5" fill="#25ACE3"/>
<path d="M12.75 10.0156C11.2398 10.0156 10.0156 11.2398 10.0156 12.75C10.0156 14.2602 11.2398 15.4844 12.75 15.4844C14.2602 15.4844 15.4844 14.2602 15.4844 12.75C15.4844 11.2398 14.2602 10.0156 12.75 10.0156Z" fill="white"/>
<path fill-rule="evenodd" clip-rule="evenodd" d="M12.7497 4.91016C13.0517 4.91016 13.2966 5.155 13.2966 5.45703V6.3916C16.384 6.65369 18.8447 9.11439 19.1068 12.2018H20.0413C20.3434 12.2018 20.5882 12.4467 20.5882 12.7487C20.5882 13.0507 20.3434 13.2956 20.0413 13.2956H19.1068C18.8447 16.383 16.384 18.8437 13.2966 19.1058V20.0404C13.2966 20.3424 13.0517 20.5872 12.7497 20.5872C12.4477 20.5872 12.2028 20.3424 12.2028 20.0404V19.1058C9.11537 18.8437 6.65467 16.383 6.39257 13.2956H5.45801C5.15598 13.2956 4.91113 13.0507 4.91113 12.7487C4.91113 12.4467 5.15598 12.2018 5.45801 12.2018H6.39257C6.65467 9.11439 9.11537 6.65369 12.2028 6.3916V5.45703C12.2028 5.155 12.4477 4.91016 12.7497 4.91016ZM7.46322 12.7487C7.46322 15.6684 9.83005 18.0352 12.7497 18.0352C15.6693 18.0352 18.0361 15.6684 18.0361 12.7487C18.0361 9.82907 15.6693 7.46224 12.7497 7.46224C9.83005 7.46224 7.46322 9.82907 7.46322 12.7487Z" fill="white"/>
</svg>
