<svg width="25" height="25" viewBox="0 0 25 25" fill="none" xmlns="http://www.w3.org/2000/svg">
<path d="M12.2045 3.32352C12.9737 2.55286 13.92 1.98242 14.9607 1.6621C16.0014 1.34177 17.1047 1.28131 18.1741 1.48602C18.4348 1.54523 18.6748 1.67353 18.8688 1.85746C19.0629 2.04138 19.2038 2.27415 19.2769 2.53133C19.35 2.78851 19.3524 3.06062 19.2841 3.31909C19.2157 3.57756 19.079 3.81286 18.8884 4.0003L16.9402 5.95388C16.665 6.23361 16.5115 6.61074 16.5131 7.00313C16.5148 7.39551 16.6713 7.77136 16.9488 8.04883C17.2263 8.32629 17.6021 8.48288 17.9945 8.48449C18.3869 8.48611 18.764 8.33261 19.0438 8.05745L20.9973 6.10387C21.1832 5.91587 21.4159 5.78086 21.6714 5.7128C21.9269 5.64474 22.1959 5.64608 22.4506 5.7167C22.7054 5.78731 22.9368 5.92463 23.1207 6.11449C23.3047 6.30434 23.4347 6.53986 23.4973 6.79673C23.7337 8.0123 23.6278 9.26962 23.1915 10.4285C22.7552 11.5875 22.0056 12.6025 21.0263 13.3603C20.047 14.1182 18.8764 14.5892 17.6451 14.7208C16.4137 14.8524 15.1701 14.6394 14.0527 14.1057L5.04912 23.1057C4.71425 23.4404 4.26012 23.6285 3.78662 23.6285C3.31311 23.6285 2.85899 23.4404 2.52412 23.1057L1.89197 22.4735C1.5572 22.1386 1.36914 21.6845 1.36914 21.211C1.36914 20.7375 1.5572 20.2834 1.89197 19.9485L10.9009 10.9414C10.3041 9.69261 10.109 8.28957 10.3424 6.92534C10.5758 5.56111 11.2264 4.30278 12.2045 3.32352V3.32352Z" stroke="#25ACE3" stroke-linecap="round" stroke-linejoin="round"/>
</svg>
