<svg width="25" height="25" viewBox="0 0 25 25" fill="none" xmlns="http://www.w3.org/2000/svg">
<path d="M12.5 19.0091C12.0685 19.0091 11.7188 19.3589 11.7188 19.7904C11.7188 20.2218 12.0685 20.5716 12.5 20.5716H18.75C19.7568 20.5716 20.5729 19.7555 20.5729 18.7487V6.2487C20.5729 5.24193 19.7568 4.42578 18.75 4.42578H12.5C12.0685 4.42578 11.7188 4.77556 11.7188 5.20703C11.7188 5.6385 12.0685 5.98828 12.5 5.98828H18.75C18.8939 5.98828 19.0104 6.10488 19.0104 6.2487V18.7487C19.0104 18.8926 18.8939 19.0091 18.75 19.0091H12.5Z" fill="#353535"/>
<path fill-rule="evenodd" clip-rule="evenodd" d="M15.1077 14.9646C15.8268 14.9646 16.4098 14.3816 16.4098 13.6625V11.3286C16.4098 10.6095 15.8268 10.0265 15.1077 10.0265H10.3029C10.2961 9.95006 10.289 9.87359 10.2816 9.79714L10.2253 9.2181C10.1394 8.33465 9.2013 7.80558 8.40086 8.18918C6.69854 9.005 5.15746 10.1214 3.85174 11.4847L3.74841 11.5926C3.26486 12.0975 3.26486 12.8936 3.7484 13.3985L3.85174 13.5064C5.15746 14.8697 6.69854 15.9861 8.40086 16.802C9.20129 17.1855 10.1394 16.6564 10.2253 15.773L10.2816 15.1939C10.289 15.1175 10.2961 15.041 10.3029 14.9646H15.1077ZM9.57856 13.4021C9.30109 13.4021 9.0558 13.5472 8.91707 13.7675C8.84952 13.8748 8.80724 13.9999 8.79882 14.1347C8.77993 14.4377 8.75578 14.7404 8.7264 15.0428L8.71006 15.2109C7.63084 14.6547 6.62862 13.9621 5.7278 13.1507C5.4941 12.9402 5.26722 12.7217 5.04759 12.4956C6.11378 11.3976 7.35085 10.4807 8.71006 9.78022L8.7264 9.9483C8.75578 10.2507 8.77993 10.5534 8.79882 10.8564C8.82451 11.2682 9.16597 11.589 9.57856 11.589H14.8473V13.4021H9.57856Z" fill="#353535"/>
</svg>
