<svg width="25" height="25" viewBox="0 0 25 25" fill="none" xmlns="http://www.w3.org/2000/svg">
<path fill-rule="evenodd" clip-rule="evenodd" d="M8.59375 9.375C8.59375 7.21764 10.3426 5.46875 12.5 5.46875C14.6574 5.46875 16.4062 7.21764 16.4062 9.375C16.4062 11.5324 14.6574 13.2812 12.5 13.2812C10.3426 13.2812 8.59375 11.5324 8.59375 9.375ZM12.5 7.03125C11.2056 7.03125 10.1562 8.08058 10.1562 9.375C10.1562 10.6694 11.2056 11.7188 12.5 11.7188C13.7944 11.7188 14.8438 10.6694 14.8438 9.375C14.8438 8.08058 13.7944 7.03125 12.5 7.03125Z" fill="#979797"/>
<path fill-rule="evenodd" clip-rule="evenodd" d="M5.68347 8.46588C5.96864 5.00628 8.85966 2.34375 12.331 2.34375H12.6685C16.1398 2.34375 19.0308 5.00628 19.316 8.46588C19.4688 10.3203 18.896 12.1618 17.7181 13.6022L13.9736 18.1818C13.2118 19.1133 11.7876 19.1133 11.0259 18.1818L7.28129 13.6022C6.10344 12.1617 5.53062 10.3203 5.68347 8.46588ZM12.331 3.90625C9.67285 3.90625 7.45905 5.94506 7.24069 8.59423C7.12109 10.0452 7.56929 11.486 8.4909 12.6131L12.2354 17.1927C12.372 17.3597 12.6274 17.3597 12.764 17.1927L16.5086 12.6131C17.4301 11.486 17.8784 10.0452 17.7588 8.59423C17.5403 5.94506 15.3266 3.90625 12.6685 3.90625H12.331Z" fill="#979797"/>
<path d="M7.99011 17.0175C8.18307 16.6316 8.02665 16.1623 7.64073 15.9694C7.25481 15.7764 6.78553 15.9328 6.59257 16.3188L4.50924 20.4854C4.38814 20.7276 4.40109 21.0152 4.54344 21.2455C4.68579 21.4759 4.93725 21.6161 5.20801 21.6161H19.7913C20.0621 21.6161 20.3135 21.4759 20.4559 21.2455C20.5982 21.0152 20.6112 20.7276 20.4901 20.4854L18.4068 16.3188C18.2138 15.9328 17.7446 15.7764 17.3586 15.9694C16.9727 16.1623 16.8162 16.6316 17.0093 17.0175L18.5273 20.0536H6.4721L7.99011 17.0175Z" fill="#979797"/>
</svg>
