<svg width="25" height="25" viewBox="0 0 25 25" fill="none" xmlns="http://www.w3.org/2000/svg">
<path d="M11.6817 13.0637L1.74418 8.47794C1.57532 8.39978 1.43235 8.27494 1.33215 8.11815C1.23195 7.96137 1.17871 7.77918 1.17871 7.59312C1.17871 7.40705 1.23195 7.22486 1.33215 7.06808C1.43235 6.91129 1.57532 6.78645 1.74418 6.70829L11.6835 2.12079C11.9396 2.00261 12.2183 1.94141 12.5004 1.94141C12.7825 1.94141 13.0613 2.00261 13.3174 2.12079L23.2549 6.70651C23.4243 6.78445 23.5677 6.9093 23.6683 7.06629C23.7688 7.22327 23.8223 7.40579 23.8223 7.59222C23.8223 7.77865 23.7688 7.96118 23.6683 8.11816C23.5677 8.27514 23.4243 8.4 23.2549 8.47794L13.3156 13.0637C13.0595 13.1818 12.7807 13.243 12.4986 13.243C12.2166 13.243 11.9378 13.1818 11.6817 13.0637V13.0637Z" stroke="#25ACE3" stroke-linecap="round" stroke-linejoin="round"/>
<path d="M23.7644 12.8086L13.2001 17.6782C12.9719 17.7832 12.7237 17.8376 12.4725 17.8376C12.2212 17.8376 11.973 17.7832 11.7448 17.6782L1.17871 12.8086" stroke="#25ACE3" stroke-linecap="round" stroke-linejoin="round"/>
<path d="M23.7644 18.0195L13.2001 22.8963C12.9719 23.0013 12.7237 23.0557 12.4725 23.0557C12.2212 23.0557 11.973 23.0013 11.7448 22.8963L1.17871 18.0195" stroke="#25ACE3" stroke-linecap="round" stroke-linejoin="round"/>
</svg>
