<svg width="25" height="25" viewBox="0 0 25 25" fill="none" xmlns="http://www.w3.org/2000/svg">
<path fill-rule="evenodd" clip-rule="evenodd" d="M8.59375 9.375C8.59375 7.21764 10.3426 5.46875 12.5 5.46875C14.6574 5.46875 16.4062 7.21764 16.4062 9.375C16.4062 11.5324 14.6574 13.2812 12.5 13.2812C10.3426 13.2812 8.59375 11.5324 8.59375 9.375ZM12.5 7.03125C11.2056 7.03125 10.1562 8.08058 10.1562 9.375C10.1562 10.6694 11.2056 11.7188 12.5 11.7188C13.7944 11.7188 14.8438 10.6694 14.8438 9.375C14.8438 8.08058 13.7944 7.03125 12.5 7.03125Z" fill="#598B36"/>
<path fill-rule="evenodd" clip-rule="evenodd" d="M5.68445 8.46588C5.96961 5.00628 8.86063 2.34375 12.3319 2.34375H12.6694C16.1408 2.34375 19.0317 5.00628 19.3169 8.46588C19.4697 10.3203 18.8969 12.1618 17.7191 13.6022L13.9745 18.1818C13.2128 19.1133 11.7886 19.1133 11.0268 18.1818L7.28227 13.6022C6.10442 12.1617 5.53159 10.3203 5.68445 8.46588ZM12.3319 3.90625C9.67382 3.90625 7.46003 5.94506 7.24167 8.59423C7.12206 10.0452 7.57027 11.486 8.49187 12.6131L12.2364 17.1927C12.373 17.3597 12.6284 17.3597 12.765 17.1927L16.5095 12.6131C17.4311 11.486 17.8793 10.0452 17.7598 8.59423C17.5413 5.94506 15.3276 3.90625 12.6694 3.90625H12.3319Z" fill="#598B36"/>
<path d="M7.99109 17.0175C8.18405 16.6316 8.02762 16.1623 7.6417 15.9694C7.25579 15.7764 6.78651 15.9328 6.59355 16.3188L4.51021 20.4854C4.38912 20.7276 4.40207 21.0152 4.54441 21.2455C4.68677 21.4759 4.93823 21.6161 5.20899 21.6161H19.7923C20.063 21.6161 20.3145 21.4759 20.4569 21.2455C20.5992 21.0152 20.6122 20.7276 20.4911 20.4854L18.4077 16.3188C18.2148 15.9328 17.7455 15.7764 17.3596 15.9694C16.9737 16.1623 16.8172 16.6316 17.0102 17.0175L18.5283 20.0536H6.47308L7.99109 17.0175Z" fill="#598B36"/>
</svg>
