<svg width="19" height="20" viewBox="0 0 19 20" fill="none" xmlns="http://www.w3.org/2000/svg">
<path fill-rule="evenodd" clip-rule="evenodd" d="M11.1221 2.34012C10.2153 1.46995 8.78343 1.46995 7.87666 2.34012L3.05743 6.96443C2.93936 7.07769 2.85993 7.2253 2.83041 7.38624C2.25319 10.534 2.21059 13.7565 2.70438 16.9185L2.82159 17.669H5.92207V11.1989C5.92207 10.7674 6.27185 10.4177 6.70332 10.4177H12.2954C12.7269 10.4177 13.0767 10.7674 13.0767 11.1989V17.669H16.1772L16.2944 16.9185C16.7881 13.7565 16.7455 10.534 16.1683 7.38624C16.1388 7.2253 16.0594 7.07769 15.9413 6.96443L11.1221 2.34012ZM6.79482 1.2127C8.30624 -0.237568 10.6925 -0.237568 12.204 1.2127L17.0231 5.83702C17.3779 6.17742 17.6166 6.62085 17.7052 7.10446C18.3141 10.4249 18.3591 13.8243 17.8381 17.1596L17.6499 18.3653C17.572 18.8639 17.1425 19.2315 16.6378 19.2315H12.2954C11.864 19.2315 11.5142 18.8818 11.5142 18.4503V11.9802H7.48458V18.4503C7.48458 18.8818 7.13479 19.2315 6.70332 19.2315H2.36089C1.85622 19.2315 1.42675 18.8639 1.34889 18.3653L1.1606 17.1596C0.639712 13.8243 0.68466 10.4249 1.29355 7.10446C1.38222 6.62085 1.62085 6.17742 1.97561 5.83702L6.79482 1.2127Z" fill="#979797"/>
</svg>
