<svg width="45" height="45" viewBox="0 0 45 45" fill="none" xmlns="http://www.w3.org/2000/svg">
<circle opacity="0.45" cx="22.5" cy="22.5" r="22.5" fill="#C4C4C4"/>
<g clip-path="url(#clip0)">
<path d="M22.8809 25.5975L22.8809 31.6599L31.1085 31.6599L31.1085 21.4837M31.1085 21.4837L22.8809 21.4837L22.8809 22.6591M31.1085 21.4837L31.1085 17.9576M14.6532 17.9576L19.3547 17.9576L19.3547 21.4837M22.2932 17.9576L25.2316 17.9576M31.1085 17.9576L31.1085 11.6783L25.2316 11.6783M31.1085 17.9576L25.2316 17.9576M19.3547 24.4222L19.3547 31.6599L14.227 31.6599L14.2258 11.6783L25.2316 11.6783M25.2316 17.9576L25.2316 16.1945M25.2316 11.6783L25.2316 13.2561M19 12.5V13M19 14.5L19 15M19 16.5L19 17" stroke="#353535" stroke-linecap="round" stroke-linejoin="round"/>
</g>
<defs>
<clipPath id="clip0">
<rect width="25" height="25" fill="white" transform="translate(10 10)"/>
</clipPath>
</defs>
</svg>
