<svg width="25" height="25" viewBox="0 0 25 25" fill="none" xmlns="http://www.w3.org/2000/svg">
<path d="M22.4072 10.9449C22.5466 10.8045 22.6248 10.6146 22.6248 10.4167V4.16667C22.6248 3.69149 22.4361 3.23577 22.1001 2.89977C21.7641 2.56376 21.3084 2.375 20.8332 2.375H14.5832C14.385 2.375 14.1949 2.45342 14.0544 2.59313L3.3044 13.2806L3.30439 13.2806L3.30128 13.2838C2.96758 13.6194 2.78027 14.0735 2.78027 14.5469C2.78027 15.0202 2.96758 15.4743 3.30127 15.81L3.30285 15.8116L9.19868 21.7074L9.20026 21.709C9.53596 22.0427 9.99006 22.23 10.4634 22.23C10.9367 22.23 11.3908 22.0427 11.7265 21.709L11.7302 21.7053L22.4072 10.9449Z" stroke="#979797" stroke-width="1.5" stroke-linecap="round" stroke-linejoin="round"/>
<path d="M17.1878 9.08464C17.8897 9.08464 18.4587 8.51566 18.4587 7.8138C18.4587 7.11194 17.8897 6.54297 17.1878 6.54297C16.486 6.54297 15.917 7.11194 15.917 7.8138C15.917 8.51566 16.486 9.08464 17.1878 9.08464Z" stroke="#979797" stroke-width="1.5" stroke-miterlimit="10" stroke-linejoin="round"/>
</svg>
