<svg width="25" height="25" viewBox="0 0 25 25" fill="none" xmlns="http://www.w3.org/2000/svg">
<path fill-rule="evenodd" clip-rule="evenodd" d="M12.5006 3.20805L10.1956 5.59295C9.95021 5.84679 9.61232 5.99014 9.25929 5.99014H5.99014V9.25929C5.99014 9.61232 5.8468 9.95021 5.59295 10.1956L3.20806 12.5006L5.59295 14.8056C5.8468 15.0509 5.99014 15.3888 5.99014 15.7418V19.011H9.25929C9.61232 19.011 9.95021 19.1543 10.1956 19.4082L12.5006 21.7931L14.8056 19.4082C15.0509 19.1543 15.3888 19.011 15.7418 19.011H19.011V15.7418C19.011 15.3888 19.1543 15.0509 19.4082 14.8056L21.7931 12.5006L19.4082 10.1956C19.1543 9.95022 19.011 9.61232 19.011 9.2593V5.99014H15.7418C15.3888 5.99014 15.0509 5.84679 14.8056 5.59295L12.5006 3.20805ZM11.5643 1.92844C12.0762 1.39885 12.9249 1.39885 13.4368 1.92844L15.8523 4.42764H19.2714C19.9906 4.42764 20.5735 5.0106 20.5735 5.72972V9.14882L23.0726 11.5643C23.6022 12.0762 23.6022 12.9249 23.0726 13.4368L20.5735 15.8523V19.2714C20.5735 19.9906 19.9906 20.5735 19.2714 20.5735H15.8523L13.4368 23.0726C12.9249 23.6022 12.0762 23.6022 11.5643 23.0726L9.14882 20.5735H5.72972C5.0106 20.5735 4.42764 19.9906 4.42764 19.2714V15.8523L1.92844 13.4368C1.39886 12.9249 1.39885 12.0762 1.92844 11.5643L4.42764 9.14881V5.72972C4.42764 5.01059 5.0106 4.42764 5.72972 4.42764H9.14882L11.5643 1.92844Z" fill="#0D0A0A"/>
<path fill-rule="evenodd" clip-rule="evenodd" d="M7.55273 12.4987C7.55273 9.76604 9.768 7.55078 12.5007 7.55078C15.2334 7.55078 17.4486 9.76604 17.4486 12.4987C17.4486 15.2314 15.2334 17.4466 12.5007 17.4466C9.768 17.4466 7.55273 15.2314 7.55273 12.4987ZM12.5007 9.11328C10.631 9.11328 9.11523 10.629 9.11523 12.4987C9.11523 14.3684 10.631 15.8841 12.5007 15.8841C14.3703 15.8841 15.8861 14.3684 15.8861 12.4987C15.8861 10.629 14.3703 9.11328 12.5007 9.11328Z" fill="#0D0A0A"/>
</svg>
