<svg width="25" height="25" viewBox="0 0 25 25" fill="none" xmlns="http://www.w3.org/2000/svg">
<path fill-rule="evenodd" clip-rule="evenodd" d="M12.4996 3.20805L10.1946 5.59295C9.94923 5.84679 9.61134 5.99013 9.25832 5.99013H5.98916V9.25929C5.98916 9.61232 5.84582 9.95021 5.59197 10.1956L3.20708 12.5006L5.59197 14.8055C5.84582 15.0509 5.98916 15.3888 5.98916 15.7418V19.011H9.25832C9.61134 19.011 9.94923 19.1543 10.1946 19.4082L12.4996 21.793L14.8046 19.4082C15.0499 19.1543 15.3878 19.011 15.7408 19.011H19.01V15.7418C19.01 15.3888 19.1533 15.0509 19.4072 14.8055L21.7921 12.5006L19.4072 10.1956C19.1533 9.95022 19.01 9.61232 19.01 9.2593V5.99013H15.7408C15.3878 5.99013 15.0499 5.84679 14.8046 5.59295L12.4996 3.20805ZM11.5633 1.92844C12.0752 1.39885 12.924 1.39885 13.4358 1.92844L15.8513 4.42763H19.2704C19.9896 4.42763 20.5725 5.0106 20.5725 5.72972V9.14882L23.0717 11.5643C23.6012 12.0762 23.6012 12.9249 23.0717 13.4368L20.5725 15.8523V19.2714C20.5725 19.9906 19.9896 20.5735 19.2704 20.5735H15.8513L13.4358 23.0726C12.924 23.6022 12.0752 23.6022 11.5633 23.0726L9.14784 20.5735H5.72875C5.00962 20.5735 4.42666 19.9906 4.42666 19.2714V15.8523L1.92746 13.4368C1.39788 12.9249 1.39787 12.0762 1.92746 11.5643L4.42666 9.14881V5.72972C4.42666 5.01059 5.00962 4.42763 5.72875 4.42763H9.14784L11.5633 1.92844Z" fill="#353535"/>
<path fill-rule="evenodd" clip-rule="evenodd" d="M7.55176 12.4987C7.55176 9.76604 9.76702 7.55078 12.4997 7.55078C15.2324 7.55078 17.4476 9.76604 17.4476 12.4987C17.4476 15.2314 15.2324 17.4466 12.4997 17.4466C9.76702 17.4466 7.55176 15.2314 7.55176 12.4987ZM12.4997 9.11328C10.63 9.11328 9.11426 10.629 9.11426 12.4987C9.11426 14.3684 10.63 15.8841 12.4997 15.8841C14.3694 15.8841 15.8851 14.3684 15.8851 12.4987C15.8851 10.629 14.3694 9.11328 12.4997 9.11328Z" fill="#353535"/>
</svg>
