<svg width="25" height="25" viewBox="0 0 25 25" fill="none" xmlns="http://www.w3.org/2000/svg">
<path fill-rule="evenodd" clip-rule="evenodd" d="M7.55251 7.55325V7.42838C7.55251 5.17031 9.08127 3.19871 11.2682 2.63637C12.0766 2.4285 12.9243 2.4285 13.7326 2.63637C15.9196 3.19871 17.4483 5.17032 17.4483 7.42839V7.55325H19.012C19.6071 7.55325 20.1121 7.98969 20.1984 8.57849L20.4262 10.1331C20.8747 13.194 20.8747 16.304 20.4262 19.3648C20.2096 20.8429 19.0176 21.9858 17.5317 22.1398L16.8766 22.2077C13.967 22.5095 11.0339 22.5095 8.12425 22.2077L7.46917 22.1398C5.98319 21.9858 4.79122 20.8429 4.57464 19.3648C4.12616 16.304 4.12616 13.194 4.57464 10.1331L4.80243 8.57849C4.8887 7.98969 5.39374 7.55325 5.98883 7.55325H7.55251ZM11.6573 4.14963C12.2104 4.00741 12.7904 4.00741 13.3435 4.14963C14.8398 4.5344 15.8858 5.88339 15.8858 7.42839V7.55325H9.11501V7.42838C9.11501 5.88339 10.161 4.5344 11.6573 4.14963ZM7.55251 9.11575V11.4595C7.55251 11.891 7.90229 12.2408 8.33376 12.2408C8.76522 12.2408 9.11501 11.891 9.11501 11.4595V9.11575H15.8858V11.4595C15.8858 11.891 16.2356 12.2408 16.6671 12.2408C17.0985 12.2408 17.4483 11.891 17.4483 11.4595V9.11575H18.6979L18.8802 10.3596C19.3067 13.2703 19.3067 16.2276 18.8802 19.1384C18.7672 19.9093 18.1455 20.5053 17.3705 20.5856L16.7154 20.6537C13.9129 20.9443 11.0879 20.9443 8.28541 20.6537L7.63034 20.5856C6.8553 20.5053 6.2336 19.9093 6.12064 19.1384C5.69416 16.2276 5.69416 13.2703 6.12064 10.3596L6.30289 9.11575H7.55251Z" fill="#979797"/>
</svg>
