<svg width="20" height="20" viewBox="0 0 20 20" fill="none" xmlns="http://www.w3.org/2000/svg">
<path d="M0.714355 10.118H3.84436C3.97705 10.1178 4.10708 10.0807 4.21987 10.0108C4.33266 9.94094 4.42375 9.84101 4.48293 9.72224L7.05436 4.58653C7.11827 4.45856 7.21914 4.35272 7.3439 4.28273C7.46866 4.21275 7.61156 4.18183 7.75409 4.19399C7.89662 4.20615 8.03221 4.26083 8.14331 4.35094C8.25441 4.44104 8.3359 4.56243 8.37721 4.69939L11.5586 15.3022C11.6013 15.4441 11.687 15.5692 11.8038 15.6602C11.9207 15.7512 12.0629 15.8037 12.2109 15.8102C12.3589 15.8168 12.5053 15.7773 12.6298 15.697C12.7543 15.6167 12.8507 15.4997 12.9058 15.3622L14.8201 10.5722C14.8732 10.4396 14.9649 10.326 15.0834 10.246C15.2018 10.166 15.3415 10.1234 15.4844 10.1237H19.2858" stroke="url(#paint0_linear)" stroke-linecap="round" stroke-linejoin="round"/>
<defs>
<linearGradient id="paint0_linear" x1="0.714355" y1="4.19141" x2="19.314" y2="4.23677" gradientUnits="userSpaceOnUse">
<stop stop-color="#43C2F7"/>
<stop offset="1" stop-color="#25ACE3"/>
</linearGradient>
</defs>
</svg>
