<svg width="40" height="40" viewBox="0 0 40 40" fill="none" xmlns="http://www.w3.org/2000/svg">
<circle cx="20" cy="20" r="20" fill="#D82626"/>
<path d="M11.8857 22.3545C11.8857 22.0036 11.7604 21.7301 11.5098 21.5342C11.2637 21.3382 10.8285 21.1354 10.2041 20.9258C9.57975 20.7161 9.06934 20.5133 8.67285 20.3174C7.38314 19.6839 6.73828 18.8135 6.73828 17.7061C6.73828 17.1546 6.89779 16.6693 7.2168 16.25C7.54036 15.8262 7.99609 15.498 8.58398 15.2656C9.17188 15.0286 9.83268 14.9102 10.5664 14.9102C11.2819 14.9102 11.9222 15.0378 12.4873 15.293C13.057 15.5482 13.499 15.9128 13.8135 16.3867C14.1279 16.8561 14.2852 17.3939 14.2852 18H11.8926C11.8926 17.5944 11.7673 17.2799 11.5166 17.0566C11.2705 16.8333 10.9355 16.7217 10.5117 16.7217C10.0833 16.7217 9.74382 16.8174 9.49316 17.0088C9.24707 17.1956 9.12402 17.4349 9.12402 17.7266C9.12402 17.9818 9.26074 18.2142 9.53418 18.4238C9.80762 18.6289 10.2884 18.8431 10.9766 19.0664C11.6647 19.2852 12.2298 19.5221 12.6719 19.7773C13.7474 20.3971 14.2852 21.2516 14.2852 22.3408C14.2852 23.2113 13.957 23.8949 13.3008 24.3916C12.6445 24.8883 11.7445 25.1367 10.6006 25.1367C9.79395 25.1367 9.0625 24.9932 8.40625 24.7061C7.75456 24.4144 7.26237 24.0179 6.92969 23.5166C6.60156 23.0107 6.4375 22.4297 6.4375 21.7734H8.84375C8.84375 22.3066 8.98047 22.7008 9.25391 22.9561C9.5319 23.2067 9.98079 23.332 10.6006 23.332C10.9971 23.332 11.3092 23.2477 11.5371 23.0791C11.7695 22.9059 11.8857 22.6644 11.8857 22.3545ZM23.9443 20.2285C23.9443 21.1992 23.7643 22.0583 23.4043 22.8057C23.0443 23.5531 22.5316 24.1296 21.8662 24.5352C21.2054 24.9362 20.4512 25.1367 19.6035 25.1367C18.7559 25.1367 18.0039 24.943 17.3477 24.5557C16.6914 24.1637 16.1787 23.6055 15.8096 22.8809C15.445 22.1562 15.2536 21.3245 15.2354 20.3857V19.8252C15.2354 18.8499 15.4131 17.9909 15.7686 17.248C16.1286 16.5007 16.6413 15.9242 17.3066 15.5186C17.9766 15.113 18.7376 14.9102 19.5898 14.9102C20.4329 14.9102 21.1849 15.1107 21.8457 15.5117C22.5065 15.9128 23.0192 16.4847 23.3838 17.2275C23.7529 17.9658 23.9398 18.8135 23.9443 19.7705V20.2285ZM21.5039 19.8115C21.5039 18.8226 21.3376 18.0729 21.0049 17.5625C20.6768 17.0475 20.2051 16.79 19.5898 16.79C18.3867 16.79 17.751 17.6924 17.6826 19.4971L17.6758 20.2285C17.6758 21.2038 17.8376 21.9535 18.1611 22.4775C18.4847 23.0016 18.9655 23.2637 19.6035 23.2637C20.2096 23.2637 20.6768 23.0062 21.0049 22.4912C21.333 21.9762 21.4993 21.2357 21.5039 20.2695V19.8115ZM30.3154 22.3545C30.3154 22.0036 30.1901 21.7301 29.9395 21.5342C29.6934 21.3382 29.2581 21.1354 28.6338 20.9258C28.0094 20.7161 27.499 20.5133 27.1025 20.3174C25.8128 19.6839 25.168 18.8135 25.168 17.7061C25.168 17.1546 25.3275 16.6693 25.6465 16.25C25.9701 15.8262 26.4258 15.498 27.0137 15.2656C27.6016 15.0286 28.2624 14.9102 28.9961 14.9102C29.7116 14.9102 30.3519 15.0378 30.917 15.293C31.4867 15.5482 31.9287 15.9128 32.2432 16.3867C32.5576 16.8561 32.7148 17.3939 32.7148 18H30.3223C30.3223 17.5944 30.1969 17.2799 29.9463 17.0566C29.7002 16.8333 29.3652 16.7217 28.9414 16.7217C28.513 16.7217 28.1735 16.8174 27.9229 17.0088C27.6768 17.1956 27.5537 17.4349 27.5537 17.7266C27.5537 17.9818 27.6904 18.2142 27.9639 18.4238C28.2373 18.6289 28.7181 18.8431 29.4062 19.0664C30.0944 19.2852 30.6595 19.5221 31.1016 19.7773C32.1771 20.3971 32.7148 21.2516 32.7148 22.3408C32.7148 23.2113 32.3867 23.8949 31.7305 24.3916C31.0742 24.8883 30.1742 25.1367 29.0303 25.1367C28.2236 25.1367 27.4922 24.9932 26.8359 24.7061C26.1842 24.4144 25.6921 24.0179 25.3594 23.5166C25.0312 23.0107 24.8672 22.4297 24.8672 21.7734H27.2734C27.2734 22.3066 27.4102 22.7008 27.6836 22.9561C27.9616 23.2067 28.4105 23.332 29.0303 23.332C29.4268 23.332 29.7389 23.2477 29.9668 23.0791C30.1992 22.9059 30.3154 22.6644 30.3154 22.3545Z" fill="white"/>
</svg>
