<svg width="65" height="65" viewBox="0 0 65 65" fill="none" xmlns="http://www.w3.org/2000/svg">
<circle cx="32.5" cy="32.5" r="32.5" fill="#D82626"/>
<path d="M19.6328 35.8428C19.6328 35.2913 19.4359 34.8617 19.042 34.5537C18.6553 34.2458 17.9714 33.9271 16.9902 33.5977C16.0091 33.2682 15.207 32.9495 14.584 32.6416C12.5573 31.6462 11.5439 30.2783 11.5439 28.5381C11.5439 27.6715 11.7946 26.9089 12.2959 26.25C12.8044 25.584 13.5205 25.0684 14.4443 24.7031C15.3682 24.3307 16.4066 24.1445 17.5596 24.1445C18.6839 24.1445 19.6901 24.3451 20.5781 24.7461C21.4733 25.1471 22.168 25.7201 22.6621 26.4648C23.1562 27.2025 23.4033 28.0475 23.4033 29H19.6436C19.6436 28.3626 19.4466 27.8685 19.0527 27.5176C18.666 27.1667 18.1396 26.9912 17.4736 26.9912C16.8005 26.9912 16.2669 27.1416 15.873 27.4424C15.4863 27.736 15.293 28.112 15.293 28.5703C15.293 28.9714 15.5078 29.3366 15.9375 29.666C16.3672 29.9883 17.1227 30.3249 18.2041 30.6758C19.2855 31.0195 20.1735 31.3919 20.8682 31.793C22.5583 32.7669 23.4033 34.1097 23.4033 35.8213C23.4033 37.1891 22.8877 38.2633 21.8564 39.0439C20.8252 39.8245 19.4108 40.2148 17.6133 40.2148C16.3457 40.2148 15.1963 39.9893 14.165 39.5381C13.141 39.0798 12.3675 38.4567 11.8447 37.6689C11.3291 36.874 11.0713 35.9609 11.0713 34.9297H14.8525C14.8525 35.7676 15.0674 36.387 15.4971 36.7881C15.9339 37.182 16.6393 37.3789 17.6133 37.3789C18.2363 37.3789 18.7269 37.2464 19.085 36.9814C19.4502 36.7093 19.6328 36.3298 19.6328 35.8428ZM38.582 32.502C38.582 34.0273 38.2992 35.3773 37.7334 36.5518C37.1676 37.7262 36.362 38.6322 35.3164 39.2695C34.278 39.8997 33.0928 40.2148 31.7607 40.2148C30.4287 40.2148 29.2471 39.9105 28.2158 39.3018C27.1846 38.6859 26.3789 37.8086 25.7988 36.6699C25.2259 35.5312 24.9251 34.2243 24.8965 32.749V31.8682C24.8965 30.3356 25.1758 28.9857 25.7344 27.8184C26.3001 26.6439 27.1058 25.738 28.1514 25.1006C29.2041 24.4632 30.4001 24.1445 31.7393 24.1445C33.0641 24.1445 34.2458 24.4596 35.2842 25.0898C36.3226 25.7201 37.1283 26.6188 37.7012 27.7861C38.2812 28.9463 38.5749 30.2783 38.582 31.7822V32.502ZM34.7471 31.8467C34.7471 30.2926 34.4857 29.1146 33.9629 28.3125C33.4473 27.5033 32.7061 27.0986 31.7393 27.0986C29.8486 27.0986 28.8496 28.5166 28.7422 31.3525L28.7314 32.502C28.7314 34.0345 28.9857 35.2126 29.4941 36.0361C30.0026 36.8597 30.7581 37.2715 31.7607 37.2715C32.7132 37.2715 33.4473 36.8669 33.9629 36.0576C34.4785 35.2484 34.7399 34.0846 34.7471 32.5664V31.8467ZM48.5938 35.8428C48.5938 35.2913 48.3968 34.8617 48.0029 34.5537C47.6162 34.2458 46.9323 33.9271 45.9512 33.5977C44.9701 33.2682 44.168 32.9495 43.5449 32.6416C41.5182 31.6462 40.5049 30.2783 40.5049 28.5381C40.5049 27.6715 40.7555 26.9089 41.2568 26.25C41.7653 25.584 42.4814 25.0684 43.4053 24.7031C44.3291 24.3307 45.3675 24.1445 46.5205 24.1445C47.6449 24.1445 48.651 24.3451 49.5391 24.7461C50.4342 25.1471 51.1289 25.7201 51.623 26.4648C52.1172 27.2025 52.3643 28.0475 52.3643 29H48.6045C48.6045 28.3626 48.4076 27.8685 48.0137 27.5176C47.627 27.1667 47.1006 26.9912 46.4346 26.9912C45.7614 26.9912 45.2279 27.1416 44.834 27.4424C44.4473 27.736 44.2539 28.112 44.2539 28.5703C44.2539 28.9714 44.4688 29.3366 44.8984 29.666C45.3281 29.9883 46.0837 30.3249 47.165 30.6758C48.2464 31.0195 49.1344 31.3919 49.8291 31.793C51.5192 32.7669 52.3643 34.1097 52.3643 35.8213C52.3643 37.1891 51.8486 38.2633 50.8174 39.0439C49.7861 39.8245 48.3717 40.2148 46.5742 40.2148C45.3066 40.2148 44.1572 39.9893 43.126 39.5381C42.1019 39.0798 41.3285 38.4567 40.8057 37.6689C40.29 36.874 40.0322 35.9609 40.0322 34.9297H43.8135C43.8135 35.7676 44.0283 36.387 44.458 36.7881C44.8949 37.182 45.6003 37.3789 46.5742 37.3789C47.1973 37.3789 47.6878 37.2464 48.0459 36.9814C48.4111 36.7093 48.5938 36.3298 48.5938 35.8428Z" fill="white"/>
</svg>
