<svg width="25" height="25" viewBox="0 0 25 25" fill="none" xmlns="http://www.w3.org/2000/svg">
<circle cx="12.5" cy="12.5" r="12.5" fill="#D82626"/>
<path d="M7.42957 13.8466C7.42957 13.6272 7.35124 13.4563 7.19458 13.3339C7.04077 13.2114 6.76876 13.0846 6.37854 12.9536C5.98832 12.8226 5.66931 12.6958 5.42151 12.5734C4.61544 12.1774 4.2124 11.6334 4.2124 10.9413C4.2124 10.5966 4.31209 10.2933 4.51147 10.0312C4.7137 9.76636 4.99854 9.56128 5.36597 9.41602C5.7334 9.2679 6.1464 9.19385 6.60498 9.19385C7.05216 9.19385 7.45235 9.2736 7.80554 9.43311C8.16158 9.59261 8.43787 9.82048 8.6344 10.1167C8.83093 10.4101 8.9292 10.7462 8.9292 11.125H7.43384C7.43384 10.8715 7.35551 10.675 7.19885 10.5354C7.04504 10.3958 6.83569 10.326 6.5708 10.326C6.30306 10.326 6.09086 10.3859 5.9342 10.5055C5.7804 10.6223 5.70349 10.7718 5.70349 10.9541C5.70349 11.1136 5.78894 11.2589 5.95984 11.3899C6.13074 11.5181 6.43123 11.6519 6.86133 11.7915C7.29142 11.9282 7.64461 12.0763 7.9209 12.2358C8.5931 12.6232 8.9292 13.1573 8.9292 13.838C8.9292 14.382 8.72412 14.8093 8.31396 15.1198C7.90381 15.4302 7.34127 15.5854 6.62634 15.5854C6.12219 15.5854 5.66504 15.4957 5.25488 15.3163C4.84757 15.134 4.53996 14.8862 4.33203 14.5729C4.12695 14.2567 4.02441 13.8936 4.02441 13.4834H5.52832C5.52832 13.8167 5.61377 14.063 5.78467 14.2225C5.95841 14.3792 6.23897 14.4575 6.62634 14.4575C6.87415 14.4575 7.06925 14.4048 7.21167 14.2994C7.35693 14.1912 7.42957 14.0402 7.42957 13.8466ZM14.9662 12.5178C14.9662 13.1245 14.8537 13.6614 14.6287 14.1285C14.4036 14.5957 14.0832 14.956 13.6674 15.2095C13.2544 15.4601 12.783 15.5854 12.2532 15.5854C11.7234 15.5854 11.2534 15.4644 10.8433 15.2223C10.4331 14.9773 10.1127 14.6284 9.88196 14.1755C9.65409 13.7227 9.53446 13.2028 9.52307 12.6161V12.2657C9.52307 11.6562 9.63416 11.1193 9.85632 10.655C10.0813 10.1879 10.4018 9.8276 10.8176 9.5741C11.2363 9.3206 11.712 9.19385 12.2446 9.19385C12.7716 9.19385 13.2415 9.31917 13.6545 9.56982C14.0675 9.82048 14.388 10.1779 14.6158 10.6422C14.8466 11.1036 14.9633 11.6334 14.9662 12.2316V12.5178ZM13.4409 12.2572C13.4409 11.6391 13.337 11.1706 13.129 10.8516C12.924 10.5297 12.6292 10.3688 12.2446 10.3688C11.4927 10.3688 11.0953 10.9327 11.0526 12.0607L11.0483 12.5178C11.0483 13.1274 11.1495 13.5959 11.3517 13.9235C11.5539 14.251 11.8544 14.4148 12.2532 14.4148C12.632 14.4148 12.924 14.2539 13.129 13.932C13.3341 13.6101 13.4381 13.1473 13.4409 12.5435V12.2572ZM18.9481 13.8466C18.9481 13.6272 18.8698 13.4563 18.7131 13.3339C18.5593 13.2114 18.2873 13.0846 17.8971 12.9536C17.5069 12.8226 17.1879 12.6958 16.9401 12.5734C16.134 12.1774 15.731 11.6334 15.731 10.9413C15.731 10.5966 15.8306 10.2933 16.03 10.0312C16.2323 9.76636 16.5171 9.56128 16.8845 9.41602C17.252 9.2679 17.665 9.19385 18.1235 9.19385C18.5707 9.19385 18.9709 9.2736 19.3241 9.43311C19.6801 9.59261 19.9564 9.82048 20.153 10.1167C20.3495 10.4101 20.4478 10.7462 20.4478 11.125H18.9524C18.9524 10.8715 18.8741 10.675 18.7174 10.5354C18.5636 10.3958 18.3542 10.326 18.0894 10.326C17.8216 10.326 17.6094 10.3859 17.4528 10.5055C17.299 10.6223 17.222 10.7718 17.222 10.9541C17.222 11.1136 17.3075 11.2589 17.4784 11.3899C17.6493 11.5181 17.9498 11.6519 18.3799 11.7915C18.81 11.9282 19.1632 12.0763 19.4395 12.2358C20.1117 12.6232 20.4478 13.1573 20.4478 13.838C20.4478 14.382 20.2427 14.8093 19.8325 15.1198C19.4224 15.4302 18.8598 15.5854 18.1449 15.5854C17.6407 15.5854 17.1836 15.4957 16.7734 15.3163C16.3661 15.134 16.0585 14.8862 15.8506 14.5729C15.6455 14.2567 15.543 13.8936 15.543 13.4834H17.0469C17.0469 13.8167 17.1323 14.063 17.3032 14.2225C17.477 14.3792 17.7575 14.4575 18.1449 14.4575C18.3927 14.4575 18.5878 14.4048 18.7302 14.2994C18.8755 14.1912 18.9481 14.0402 18.9481 13.8466Z" fill="white"/>
</svg>
