<svg width="95" height="96" viewBox="0 0 95 96" fill="none" xmlns="http://www.w3.org/2000/svg">
<g filter="url(#filter0_d)">
<path fill-rule="evenodd" clip-rule="evenodd" d="M49.6654 11.3026C48.4071 10.6458 46.7019 10.6357 45.4337 11.2907C40.5718 13.8016 36.162 16.6806 32.2977 19.8737C31.7001 20.3675 31.2761 21.085 31.2833 21.9296C31.2905 22.7707 31.7232 23.4787 32.3172 23.9644C36.1494 27.0977 40.5628 29.9794 45.3356 32.4703C46.5939 33.1271 48.2991 33.1373 49.5675 32.4821C54.4292 29.9713 58.839 27.0923 62.7034 23.8991C63.3009 23.4054 63.7251 22.6879 63.7178 21.8433C63.7104 21.0022 63.2779 20.2942 62.6839 19.8086C58.8516 16.6751 54.4382 13.7936 49.6654 11.3026ZM46.7243 13.7897C47.1735 13.5576 47.9117 13.5598 48.3641 13.7959C52.9191 16.1732 57.1161 18.9083 60.7523 21.8625C57.0945 24.8642 52.9099 27.5905 48.2769 29.9831C47.8275 30.2153 47.0893 30.213 46.6369 29.977C42.0819 27.5996 37.8849 24.8646 34.2488 21.9104C37.9066 18.9086 42.0911 16.1824 46.7243 13.7897Z" fill="#25ACE3"/>
<path d="M64.7448 28.8102C65.1561 29.4689 64.9555 30.3364 64.2966 30.7478L52.8456 37.897C51.2918 38.8671 49.364 39.3156 47.5002 39.3156C45.6366 39.3158 43.7086 38.8675 42.1545 37.8976L30.8289 30.8294C30.17 30.4182 29.9693 29.5506 30.3805 28.8918C30.7916 28.2329 31.6591 28.0321 32.318 28.4433L43.6436 35.5116C44.6639 36.1484 46.0499 36.5033 47.5 36.5031C48.9503 36.5031 50.3361 36.148 51.3561 35.5113L62.8073 28.3621C63.466 27.9507 64.3336 28.1513 64.7448 28.8102Z" fill="#25ACE3"/>
<path d="M64.7448 35.8489C65.1561 36.5078 64.9555 37.3752 64.2968 37.7866L54.3801 43.9795C52.3971 45.2179 49.9165 45.8005 47.5002 45.8007C45.0839 45.8009 42.6031 45.2185 40.6198 43.9804L30.8287 37.8681C30.1699 37.4569 29.9693 36.5894 30.3805 35.9307C30.7918 35.2718 31.6593 35.0712 32.3181 35.4824L42.1091 41.5945C43.5585 42.4994 45.4971 42.9884 47.5 42.9882C49.5029 42.988 51.4413 42.499 52.8904 41.5939L62.8071 35.4012C63.4658 34.9898 64.3334 35.1903 64.7448 35.8489Z" fill="#25ACE3"/>
</g>
<defs>
<filter id="filter0_d" x="-5" y="-5" width="105" height="105" filterUnits="userSpaceOnUse" color-interpolation-filters="sRGB">
<feFlood flood-opacity="0" result="BackgroundImageFix"/>
<feColorMatrix in="SourceAlpha" type="matrix" values="0 0 0 0 0 0 0 0 0 0 0 0 0 0 0 0 0 0 127 0"/>
<feOffset dy="20"/>
<feGaussianBlur stdDeviation="15"/>
<feColorMatrix type="matrix" values="0 0 0 0 0 0 0 0 0 0 0 0 0 0 0 0 0 0 0.15 0"/>
<feBlend mode="normal" in2="BackgroundImageFix" result="effect1_dropShadow"/>
<feBlend mode="normal" in="SourceGraphic" in2="effect1_dropShadow" result="shape"/>
</filter>
</defs>
</svg>
