<svg width="65" height="65" viewBox="0 0 65 65" fill="none" xmlns="http://www.w3.org/2000/svg">
<path d="M32.5 65C50.4493 65 65 50.4493 65 32.5C65 14.5507 50.4493 0 32.5 0C14.5507 0 0 14.5507 0 32.5C0 50.4493 14.5507 65 32.5 65Z" fill="white"/>
<path fill-rule="evenodd" clip-rule="evenodd" d="M34.6654 16.3026C33.4071 15.6458 31.7019 15.6357 30.4337 16.2907C25.5718 18.8016 21.162 21.6806 17.2977 24.8737C16.7001 25.3675 16.2761 26.085 16.2833 26.9296C16.2905 27.7707 16.7232 28.4787 17.3172 28.9644C21.1494 32.0977 25.5628 34.9794 30.3356 37.4703C31.5939 38.1271 33.2991 38.1373 34.5675 37.4821C39.4292 34.9713 43.839 32.0923 47.7034 28.8991C48.3009 28.4054 48.7251 27.6879 48.7178 26.8433C48.7104 26.0022 48.2779 25.2942 47.6839 24.8086C43.8516 21.6751 39.4382 18.7936 34.6654 16.3026ZM31.7243 18.7897C32.1735 18.5576 32.9117 18.5598 33.3641 18.7959C37.9191 21.1732 42.1161 23.9083 45.7523 26.8625C42.0945 29.8642 37.9099 32.5905 33.2769 34.9831C32.8275 35.2153 32.0893 35.213 31.6369 34.977C27.0819 32.5996 22.8849 29.8646 19.2488 26.9104C22.9066 23.9086 27.0911 21.1824 31.7243 18.7897Z" fill="#25ACE3"/>
<path d="M49.7448 33.8102C50.1561 34.4689 49.9555 35.3364 49.2966 35.7478L37.8456 42.897C36.2918 43.8671 34.364 44.3156 32.5002 44.3156C30.6366 44.3158 28.7086 43.8675 27.1545 42.8976L15.8289 35.8294C15.17 35.4182 14.9693 34.5506 15.3805 33.8918C15.7916 33.2329 16.6591 33.0321 17.318 33.4433L28.6436 40.5116C29.6639 41.1484 31.0499 41.5033 32.5 41.5031C33.9503 41.5031 35.3361 41.148 36.3561 40.5113L47.8073 33.3621C48.466 32.9507 49.3336 33.1513 49.7448 33.8102Z" fill="#25ACE3"/>
<path d="M49.7448 40.8489C50.1561 41.5078 49.9555 42.3752 49.2968 42.7866L39.3801 48.9795C37.3971 50.2179 34.9165 50.8005 32.5002 50.8007C30.0839 50.8009 27.6031 50.2185 25.6198 48.9804L15.8287 42.8681C15.1699 42.4569 14.9693 41.5894 15.3805 40.9307C15.7918 40.2718 16.6593 40.0712 17.3181 40.4824L27.1091 46.5945C28.5585 47.4994 30.4971 47.9884 32.5 47.9882C34.5029 47.988 36.4413 47.499 37.8904 46.5939L47.8071 40.4012C48.4658 39.9898 49.3334 40.1903 49.7448 40.8489Z" fill="#25ACE3"/>
</svg>
