<svg width="16" height="16" viewBox="0 0 16 16" fill="none" xmlns="http://www.w3.org/2000/svg">
<path d="M8.38053 0.497125C8.09958 -0.0563333 7.40017 -0.0563333 7.11922 0.497125L5.1402 4.39488C5.00138 4.66828 4.76145 4.85487 4.48797 4.90207L0.779196 5.54226C0.156283 5.64978 -0.0622188 6.54861 0.422903 7.00794L3.18578 9.62394C3.44153 9.86611 3.56178 10.2481 3.49966 10.6209L2.77693 14.9586C2.66268 15.6443 3.29252 16.177 3.83295 15.8519L7.32521 13.7503C7.59099 13.5904 7.90869 13.5904 8.17454 13.7503L11.6668 15.8519C12.2072 16.177 12.8371 15.6443 12.7228 14.9586L12.0001 10.6209C11.938 10.2481 12.0582 9.86611 12.3139 9.62394L15.0768 7.00794C15.5619 6.54861 15.3435 5.64978 14.7206 5.54226L11.0118 4.90207C10.7383 4.85487 10.4984 4.66828 10.3596 4.39488L8.38053 0.497125Z" fill="#EAA92B"/>
</svg>
