<svg width="20" height="21" viewBox="0 0 20 21" fill="none" xmlns="http://www.w3.org/2000/svg">
<path d="M10.7252 1.12043C10.374 0.428607 9.49972 0.428607 9.14854 1.12043L6.67476 5.99263C6.50124 6.33438 6.20133 6.56761 5.85948 6.62661L1.22351 7.42685C0.444866 7.56125 0.171738 8.68478 0.778141 9.25895L4.23174 12.5289C4.55142 12.8317 4.70174 13.3092 4.62408 13.7752L3.72067 19.1973C3.57786 20.0544 4.36517 20.7203 5.04069 20.3138L9.40602 17.6869C9.73825 17.487 10.1354 17.487 10.4677 17.6869L14.833 20.3138C15.5085 20.7203 16.2958 20.0544 16.153 19.1973L15.2497 13.7752C15.172 13.3092 15.3223 12.8317 15.6419 12.5289L19.0956 9.25895C19.7019 8.68478 19.4289 7.56125 18.6502 7.42685L14.0143 6.62661C13.6724 6.56761 13.3725 6.33438 13.199 5.99263L10.7252 1.12043Z" fill="#25ACE3"/>
</svg>
