<svg width="20" height="20" viewBox="0 0 20 20" fill="none" xmlns="http://www.w3.org/2000/svg">
<path d="M6.95892 12.9014C6.61177 13.828 6.02095 14.6438 5.24879 15.2626C4.47663 15.8813 3.55177 16.2802 2.57178 16.4171C3.01749 17.4714 3.19749 17.8657 3.85749 19.2614C6.25411 18.6094 8.36832 17.1842 9.87178 15.2071C10.8988 15.4964 11.8477 16.013 12.6479 16.7188C13.4481 17.4246 14.0793 18.3014 14.4946 19.2843C15.7361 18.24 15.8732 18.1414 16.9232 17.2843C15.9137 15.235 14.2321 13.5938 12.1589 12.6343C12.1761 12.1643 12.1903 12.0471 12.2103 11.6786C13.1471 11.8369 14.108 11.7717 15.0148 11.4885C15.9217 11.2052 16.7488 10.7119 17.4289 10.0486C17.4289 10.0486 16.8232 8.90571 16.0575 7.73429C13.4346 10.1129 12.2003 7.44857 9.29606 6.5C7.57178 7.55857 6.87606 10.2086 6.95892 12.9014Z" stroke="url(#paint0_linear)" stroke-linecap="round" stroke-linejoin="round"/>
<path d="M15.1669 3.35569C15.1669 2.64908 14.8862 1.97141 14.3866 1.47176C13.8869 0.972107 13.2093 0.691406 12.5027 0.691406C11.7961 0.691406 11.1184 0.972107 10.6187 1.47176C10.1191 1.97141 9.83838 2.64908 9.83838 3.35569C9.83838 4.0623 10.1191 4.73998 10.6187 5.23963C11.1184 5.73928 11.7961 6.01998 12.5027 6.01998C13.2093 6.01998 13.8869 5.73928 14.3866 5.23963C14.8862 4.73998 15.1669 4.0623 15.1669 3.35569Z" stroke="url(#paint1_linear)" stroke-linecap="round" stroke-linejoin="round"/>
<defs>
<linearGradient id="paint0_linear" x1="2.57178" y1="6.5" x2="17.4515" y2="6.52639" gradientUnits="userSpaceOnUse">
<stop stop-color="#43C2F7"/>
<stop offset="1" stop-color="#25ACE3"/>
</linearGradient>
<linearGradient id="paint1_linear" x1="9.83838" y1="0.691406" x2="15.1751" y2="0.699549" gradientUnits="userSpaceOnUse">
<stop stop-color="#43C2F7"/>
<stop offset="1" stop-color="#25ACE3"/>
</linearGradient>
</defs>
</svg>
