<svg width="20" height="20" viewBox="0 0 20 20" fill="none" xmlns="http://www.w3.org/2000/svg">
<path d="M12.1427 12.8734V2.8577C12.1427 2.28938 11.9169 1.74434 11.5151 1.34247C11.1132 0.940608 10.5682 0.714844 9.99985 0.714844V0.714844C9.43153 0.714844 8.88649 0.940608 8.48462 1.34247C8.08276 1.74434 7.85699 2.28938 7.85699 2.8577V12.8734C7.27306 13.3089 6.83672 13.913 6.60682 14.6043C6.37692 15.2955 6.36451 16.0406 6.57128 16.7391C6.73868 17.3221 7.05374 17.8519 7.48596 18.2774C7.91818 18.7028 8.45292 19.0095 9.03842 19.1677C9.83997 19.3904 10.6941 19.3264 11.4535 18.9866C12.2129 18.6468 12.8298 18.0525 13.1977 17.3064C13.5657 16.5603 13.6617 15.7091 13.4691 14.8998C13.2765 14.0905 12.8073 13.3738 12.1427 12.8734V12.8734Z" stroke="#00A2E8" stroke-linecap="round" stroke-linejoin="round"/>
</svg>
