<svg width="25" height="25" viewBox="0 0 25 25" fill="none" xmlns="http://www.w3.org/2000/svg">
<path d="M9.63558 3.125C9.63558 2.69353 9.98536 2.34375 10.4168 2.34375H14.5835C15.015 2.34375 15.3647 2.69353 15.3647 3.125V3.90625H19.7918C20.2233 3.90625 20.5731 4.25603 20.5731 4.6875C20.5731 5.11897 20.2233 5.46875 19.7918 5.46875H5.2085C4.77703 5.46875 4.42725 5.11897 4.42725 4.6875C4.42725 4.25603 4.77703 3.90625 5.2085 3.90625H9.63558V3.125Z" fill="#353535"/>
<path fill-rule="evenodd" clip-rule="evenodd" d="M6.50011 8.27581C6.52942 8.01205 6.75236 7.8125 7.01776 7.8125H17.9827C18.248 7.8125 18.4711 8.01205 18.5003 8.27581L18.7088 10.1522C19.0846 13.5345 19.0846 16.948 18.7088 20.3302L18.6882 20.515C18.5514 21.7468 17.5967 22.7291 16.3693 22.9009C13.8024 23.2603 11.198 23.2603 8.6312 22.9009C7.40373 22.7291 6.44902 21.7468 6.31215 20.515L6.29163 20.3302C5.91581 16.948 5.91581 13.5345 6.29163 10.1522L6.50011 8.27581ZM11.1981 11.875C11.1981 11.4435 10.8483 11.0937 10.4169 11.0937C9.98542 11.0937 9.63564 11.4435 9.63564 11.875V19.1667C9.63564 19.5981 9.98542 19.9479 10.4169 19.9479C10.8483 19.9479 11.1981 19.5981 11.1981 19.1667V11.875ZM15.3648 11.875C15.3648 11.4435 15.015 11.0937 14.5836 11.0937C14.1521 11.0937 13.8023 11.4435 13.8023 11.875V19.1667C13.8023 19.5981 14.1521 19.9479 14.5836 19.9479C15.015 19.9479 15.3648 19.5981 15.3648 19.1667V11.875Z" fill="#353535"/>
</svg>
