<svg width="25" height="25" viewBox="0 0 25 25" fill="none" xmlns="http://www.w3.org/2000/svg">
<path fill-rule="evenodd" clip-rule="evenodd" d="M8.07324 7.8138C8.07324 5.36879 10.0553 3.38672 12.5003 3.38672C14.9453 3.38672 16.9274 5.36879 16.9274 7.8138C16.9274 10.2588 14.9453 12.2409 12.5003 12.2409C10.0553 12.2409 8.07324 10.2588 8.07324 7.8138ZM12.5003 4.94922C10.9182 4.94922 9.63574 6.23174 9.63574 7.8138C9.63574 9.39586 10.9182 10.6784 12.5003 10.6784C14.0824 10.6784 15.3649 9.39586 15.3649 7.8138C15.3649 6.23174 14.0824 4.94922 12.5003 4.94922Z" fill="#979797"/>
<path fill-rule="evenodd" clip-rule="evenodd" d="M8.33301 15.3633C7.03859 15.3633 5.98926 16.4127 5.98926 17.707V18.9448C5.98926 18.9637 6.00291 18.9797 6.02152 18.9828C10.3119 19.6833 14.6875 19.6833 18.9778 18.9828C18.9964 18.9797 19.0101 18.9637 19.0101 18.9448V17.707C19.0101 16.4127 17.9607 15.3633 16.6663 15.3633H16.3112C16.2838 15.3633 16.2566 15.3677 16.2304 15.3761L15.3288 15.6706C13.4905 16.2708 11.5088 16.2708 9.67049 15.6706L8.76892 15.3761C8.74282 15.3677 8.71553 15.3633 8.68808 15.3633H8.33301ZM4.42676 17.707C4.42676 15.5496 6.17564 13.8008 8.33301 13.8008H8.68808C8.88026 13.8008 9.07123 13.8312 9.25392 13.8908L10.1555 14.1853C11.6787 14.6826 13.3206 14.6826 14.8438 14.1853L15.7454 13.8908C15.9281 13.8312 16.1191 13.8008 16.3112 13.8008H16.6663C18.8237 13.8008 20.5726 15.5496 20.5726 17.707V18.9448C20.5726 19.7294 20.0039 20.3984 19.2296 20.5248C14.7725 21.2526 10.2269 21.2526 5.76975 20.5248C4.99538 20.3984 4.42676 19.7294 4.42676 18.9448V17.707Z" fill="#979797"/>
</svg>
