<svg width="35" height="35" viewBox="0 0 35 35" fill="none" xmlns="http://www.w3.org/2000/svg">
<path d="M14.583 13.1237C14.583 11.5129 15.8888 10.207 17.4997 10.207C19.1105 10.207 20.4163 11.5129 20.4163 13.1237C20.4163 14.7345 19.1105 16.0403 17.4997 16.0403C15.8888 16.0403 14.583 14.7345 14.583 13.1237Z" fill="white"/>
<path d="M16.042 18.2305C13.6258 18.2305 11.667 20.1893 11.667 22.6055C11.667 23.4109 12.3199 24.0638 13.1253 24.0638H21.8753C22.6808 24.0638 23.3337 23.4109 23.3337 22.6055C23.3337 20.1893 21.375 18.2305 18.9587 18.2305H16.042Z" fill="white"/>
<path fill-rule="evenodd" clip-rule="evenodd" d="M11.001 4.20284C15.3115 3.58343 19.6885 3.58343 23.9991 4.20284C26.1363 4.50995 27.7829 6.24448 27.9784 8.39473L28.1637 10.4302C28.5914 15.1329 28.5914 19.8649 28.1637 24.5677L27.9784 26.6031C27.7829 28.7534 26.1363 30.488 23.9991 30.795C19.6885 31.4145 15.3115 31.4145 11.001 30.795C8.86384 30.488 7.21723 28.7534 7.02164 26.6031L6.83648 24.5677C6.40867 19.8649 6.40867 15.1329 6.83648 10.4302L7.02164 8.39473C7.21723 6.24448 8.86384 4.50995 11.001 4.20284ZM23.6879 6.3681C19.5837 5.77835 15.4164 5.77835 11.3121 6.3681C10.1779 6.5311 9.30395 7.45169 9.20014 8.59291L9.01498 10.6283C8.59916 15.1993 8.59916 19.7985 9.01498 24.3696L9.20014 26.4049C9.30396 27.5462 10.1779 28.4667 11.3121 28.6298C15.4164 29.2195 19.5837 29.2195 23.6879 28.6298C24.8222 28.4667 25.6962 27.5462 25.8 26.4049L25.985 24.3696C26.401 19.7985 26.401 15.1993 25.985 10.6283L25.8 8.59291C25.6962 7.45169 24.8222 6.5311 23.6879 6.3681Z" fill="white"/>
</svg>
