<svg width="20" height="20" viewBox="0 0 20 20" fill="none" xmlns="http://www.w3.org/2000/svg">
<path d="M10 7.14453V11.4302" stroke="#00A2E8" stroke-linecap="round" stroke-linejoin="round"/>
<path d="M9.99993 16.4286C10.3944 16.4286 10.7142 16.1088 10.7142 15.7143C10.7142 15.3198 10.3944 15 9.99993 15C9.60544 15 9.28564 15.3198 9.28564 15.7143C9.28564 16.1088 9.60544 16.4286 9.99993 16.4286Z" stroke="#00A2E8" stroke-linecap="round" stroke-linejoin="round"/>
<path d="M11.2774 1.50332C11.1587 1.26635 10.9763 1.06709 10.7507 0.927841C10.5252 0.788593 10.2654 0.714844 10.0003 0.714844C9.73521 0.714844 9.47537 0.788593 9.24982 0.927841C9.02427 1.06709 8.84191 1.26635 8.72314 1.50332L0.865998 17.2176C0.757191 17.4353 0.705827 17.6773 0.716779 17.9205C0.727731 18.1636 0.800637 18.4 0.928577 18.607C1.05652 18.8141 1.23525 18.9851 1.44781 19.1037C1.66038 19.2223 1.89973 19.2846 2.14314 19.2847H17.8574C18.1008 19.2846 18.3402 19.2223 18.5528 19.1037C18.7653 18.9851 18.9441 18.8141 19.072 18.607C19.1999 18.4 19.2728 18.1636 19.2838 17.9205C19.2947 17.6773 19.2434 17.4353 19.1346 17.2176L11.2774 1.50332Z" stroke="#00A2E8" stroke-linecap="round" stroke-linejoin="round"/>
</svg>
